<?xml version="1.0" encoding="iso-8859-1"?>
<!-- Generator: Adobe Illustrator 19.0.0, SVG Export Plug-In . SVG Version: 6.00 Build 0)  -->
<svg version="1.1" id="Capa_1" xmlns="http://www.w3.org/2000/svg" xmlns:xlink="http://www.w3.org/1999/xlink" x="0px" y="0px"
	 viewBox="0 0 512 512" style="enable-background:new 0 0 512 512;" xml:space="preserve">
<g>
	<path style="fill:#009AF2;" d="M318.253,436.128c-8.284,0-15.001-6.716-15.001-15.001v-51.01c0-8.284,6.716-15.001,15.001-15.001
		c8.284,0,15.001,6.716,15.001,15.001v51.01C333.254,429.412,326.538,436.128,318.253,436.128z"/>
	<path style="fill:#009AF2;" d="M425.034,436.128c-8.284,0-15.001-6.716-15.001-15.001v-51.01c0-8.284,6.716-15.001,15.001-15.001
		c8.284,0,15.001,6.716,15.001,15.001v51.01C440.035,429.412,433.319,436.128,425.034,436.128z"/>
</g>
<path style="fill:#00497B;" d="M512,421.131c0,8.28-6.71,15.001-15.001,15.001H223.695c-8.28,0-15.001-6.72-15.001-15.001
	c0-8.29,6.72-15.001,15.001-15.001h273.304C505.29,406.13,512,412.841,512,421.131z"/>
<path style="fill:#00345A;" d="M512,421.131c0,8.28-6.71,15.001-15.001,15.001H255.907V406.13h241.093
	C505.29,406.13,512,412.841,512,421.131z"/>
<path style="fill:#FFAB00;" d="M512,324.696c0,13.271-4.3,25.561-11.591,35.542c-10.991,15.071-28.782,24.881-48.833,24.881H297.959
	c-15.091,0-29.372-3.55-42.052-9.861c-31.222-15.511-52.723-47.743-52.723-84.914c0-7.2-4.13-13.741-10.591-16.851L0.003,211.76
	v-81.584H317.48C424.735,130.176,512,217.43,512,324.696z"/>
<path style="fill:#FF7B59;" d="M512,324.696c0,13.271-4.3,25.561-11.591,35.542c-10.991,15.071-28.782,24.881-48.833,24.881H297.959
	c-15.091,0-29.372-3.55-42.052-9.861V130.176h61.573C424.735,130.176,512,217.43,512,324.696z"/>
<path style="fill:#00497B;" d="M15.001,262.642C6.716,262.642,0,255.925,0,247.641V100.758c0-8.284,6.716-15.001,15.001-15.001
	s15.001,6.716,15.001,15.001v146.883C30.002,255.926,23.285,262.642,15.001,262.642z"/>
<path style="fill:#009AF2;" d="M318.253,160.172c-8.284,0-15.001-6.716-15.001-15.001V90.869c0-8.284,6.716-15.001,15.001-15.001
	c8.284,0,15.001,6.716,15.001,15.001v54.303C333.254,153.456,326.538,160.172,318.253,160.172z"/>
<path style="fill:#00497B;" d="M512,90.874c0,8.28-6.71,15.001-15.001,15.001H132.95c-8.28,0-15.001-6.72-15.001-15.001
	c0-8.29,6.72-15.001,15.001-15.001h364.049C505.29,75.873,512,82.583,512,90.874z"/>
<path style="fill:#00345A;" d="M496.999,105.875H255.907V75.873h241.093c8.29,0,15.001,6.71,15.001,15.001
	C512,99.154,505.29,105.875,496.999,105.875z"/>
<path style="fill:#8DF4FF;" d="M512,324.696c0,13.271-4.3,25.561-11.591,35.542L328.69,302.415
	c-13.081-4.21-24.291-12.941-31.572-24.601l-41.212-65.503l-51.683-82.134H317.48C424.735,130.176,512,217.43,512,324.696z"/>
<path style="fill:#00E0FF;" d="M512,324.696c0,13.271-4.3,25.561-11.591,35.542L328.69,302.415
	c-13.081-4.21-24.291-12.941-31.572-24.601l-41.212-65.503v-82.134h61.573C424.735,130.176,512,217.43,512,324.696z"/>
<g>
</g>
<g>
</g>
<g>
</g>
<g>
</g>
<g>
</g>
<g>
</g>
<g>
</g>
<g>
</g>
<g>
</g>
<g>
</g>
<g>
</g>
<g>
</g>
<g>
</g>
<g>
</g>
<g>
</g>
</svg>
